<svg id="visual" viewBox="0 0 900 600" width="900" height="600" xmlns="http://www.w3.org/2000/svg" xmlns:xlink="http://www.w3.org/1999/xlink" version="1.1"><rect x="0" y="0" width="900" height="600" fill="#ffffff"></rect><g transform="translate(31.956851214989896 599.6796752785931)"><path d="M147.8 -190C178.5 -150.3 181.6 -91.4 188.2 -35.9C194.7 19.6 204.7 71.8 188.7 117.8C172.7 163.8 130.6 203.6 78.2 228.7C25.8 253.7 -37.1 264.1 -84.4 242.3C-131.8 220.6 -163.8 166.8 -196.4 112.4C-229 58 -262.2 2.9 -261.2 -53.6C-260.2 -110.1 -224.9 -168 -175.7 -204.5C-126.4 -241 -63.2 -256 -2.4 -253.2C58.5 -250.4 117 -229.8 147.8 -190" fill="#4FACF7"></path></g></svg>