<svg id="visual" viewBox="0 0 900 600" width="900" height="600" xmlns="http://www.w3.org/2000/svg" xmlns:xlink="http://www.w3.org/1999/xlink" version="1.1"><rect x="0" y="0" width="900" height="600" fill="#92ceff"></rect><defs><linearGradient id="grad1_0" x1="33.3%" y1="0%" x2="100%" y2="100%"><stop offset="20%" stop-color="#6600ff" stop-opacity="1"></stop><stop offset="80%" stop-color="#6600ff" stop-opacity="1"></stop></linearGradient></defs><defs><linearGradient id="grad1_1" x1="33.3%" y1="0%" x2="100%" y2="100%"><stop offset="20%" stop-color="#6600ff" stop-opacity="1"></stop><stop offset="80%" stop-color="#0561ff" stop-opacity="1"></stop></linearGradient></defs><defs><linearGradient id="grad1_2" x1="33.3%" y1="0%" x2="100%" y2="100%"><stop offset="20%" stop-color="#008dff" stop-opacity="1"></stop><stop offset="80%" stop-color="#0561ff" stop-opacity="1"></stop></linearGradient></defs><defs><linearGradient id="grad1_3" x1="33.3%" y1="0%" x2="100%" y2="100%"><stop offset="20%" stop-color="#008dff" stop-opacity="1"></stop><stop offset="80%" stop-color="#45b0ff" stop-opacity="1"></stop></linearGradient></defs><defs><linearGradient id="grad1_4" x1="33.3%" y1="0%" x2="100%" y2="100%"><stop offset="20%" stop-color="#92ceff" stop-opacity="1"></stop><stop offset="80%" stop-color="#45b0ff" stop-opacity="1"></stop></linearGradient></defs><defs><linearGradient id="grad2_0" x1="0%" y1="0%" x2="66.7%" y2="100%"><stop offset="20%" stop-color="#6600ff" stop-opacity="1"></stop><stop offset="80%" stop-color="#6600ff" stop-opacity="1"></stop></linearGradient></defs><defs><linearGradient id="grad2_1" x1="0%" y1="0%" x2="66.7%" y2="100%"><stop offset="20%" stop-color="#0561ff" stop-opacity="1"></stop><stop offset="80%" stop-color="#6600ff" stop-opacity="1"></stop></linearGradient></defs><defs><linearGradient id="grad2_2" x1="0%" y1="0%" x2="66.7%" y2="100%"><stop offset="20%" stop-color="#0561ff" stop-opacity="1"></stop><stop offset="80%" stop-color="#008dff" stop-opacity="1"></stop></linearGradient></defs><defs><linearGradient id="grad2_3" x1="0%" y1="0%" x2="66.7%" y2="100%"><stop offset="20%" stop-color="#45b0ff" stop-opacity="1"></stop><stop offset="80%" stop-color="#008dff" stop-opacity="1"></stop></linearGradient></defs><defs><linearGradient id="grad2_4" x1="0%" y1="0%" x2="66.7%" y2="100%"><stop offset="20%" stop-color="#45b0ff" stop-opacity="1"></stop><stop offset="80%" stop-color="#92ceff" stop-opacity="1"></stop></linearGradient></defs><g transform="translate(900, 0)"><path d="M0 486.7C-61.2 463.6 -122.5 440.5 -168.8 407.4C-215 374.3 -246.3 331.3 -296.3 296.3C-346.2 261.3 -414.8 234.3 -449.7 186.3C-484.6 138.2 -485.7 69.1 -486.7 0L0 0Z" fill="#6dbfff"></path><path d="M0 389.4C-49 370.9 -98 352.4 -135 325.9C-172 299.5 -197.1 265 -237 237C-277 209 -331.9 187.4 -359.8 149C-387.6 110.6 -388.5 55.3 -389.4 0L0 0Z" fill="#009fff"></path><path d="M0 292C-36.7 278.2 -73.5 264.3 -101.3 244.5C-129 224.6 -147.8 198.8 -177.8 177.8C-207.7 156.8 -248.9 140.6 -269.8 111.8C-290.7 82.9 -291.4 41.5 -292 0L0 0Z" fill="#0078ff"></path><path d="M0 194.7C-24.5 185.5 -49 176.2 -67.5 163C-86 149.7 -98.5 132.5 -118.5 118.5C-138.5 104.5 -165.9 93.7 -179.9 74.5C-193.8 55.3 -194.3 27.6 -194.7 0L0 0Z" fill="#4343ff"></path><path d="M0 97.3C-12.2 92.7 -24.5 88.1 -33.8 81.5C-43 74.9 -49.3 66.3 -59.3 59.3C-69.2 52.3 -83 46.9 -89.9 37.3C-96.9 27.6 -97.1 13.8 -97.3 0L0 0Z" fill="#6600ff"></path></g><g transform="translate(0, 600)"><path d="M0 -486.7C57.4 -456.6 114.8 -426.4 164.6 -397.3C214.4 -368.1 256.6 -340.1 307.6 -307.6C358.6 -275.1 418.4 -238.3 449.7 -186.3C481 -134.3 483.9 -67.1 486.7 0L0 0Z" fill="#6dbfff"></path><path d="M0 -389.4C45.9 -365.3 91.8 -341.1 131.6 -317.8C171.5 -294.5 205.3 -272 246.1 -246.1C286.9 -220.1 334.7 -190.6 359.8 -149C384.8 -107.4 387.1 -53.7 389.4 0L0 0Z" fill="#009fff"></path><path d="M0 -292C34.4 -273.9 68.9 -255.8 98.7 -238.4C128.6 -220.9 154 -204 184.6 -184.6C215.2 -165.1 251 -143 269.8 -111.8C288.6 -80.6 290.3 -40.3 292 0L0 0Z" fill="#0078ff"></path><path d="M0 -194.7C23 -182.6 45.9 -170.6 65.8 -158.9C85.7 -147.3 102.6 -136 123 -123C143.4 -110 167.4 -95.3 179.9 -74.5C192.4 -53.7 193.6 -26.9 194.7 0L0 0Z" fill="#4343ff"></path><path d="M0 -97.3C11.5 -91.3 23 -85.3 32.9 -79.5C42.9 -73.6 51.3 -68 61.5 -61.5C71.7 -55 83.7 -47.7 89.9 -37.3C96.2 -26.9 96.8 -13.4 97.3 0L0 0Z" fill="#6600ff"></path></g></svg>